<svg xmlns="http://www.w3.org/2000/svg" xlink="http://www.w3.org/1999/xlink" width="0" height="0" style="display:none;"><symbol viewBox="0 0 24 24" id="zoom-in-line"><path fill="none" d="M0 0h24v24H0z"/><path d="M18.031 16.617l4.283 4.282-1.415 1.415-4.282-4.283A8.96 8.96 0 0 1 11 20c-4.968 0-9-4.032-9-9s4.032-9 9-9 9 4.032 9 9a8.96 8.96 0 0 1-1.969 5.617zm-2.006-.742A6.977 6.977 0 0 0 18 11c0-3.868-3.133-7-7-7-3.868 0-7 3.132-7 7 0 3.867 3.132 7 7 7a6.977 6.977 0 0 0 4.875-1.975l.15-.15zM10 10V7h2v3h3v2h-3v3h-2v-3H7v-2h3z"/></symbol><symbol viewBox="0 0 24 24" id="zoom-out-line"><path fill="none" d="M0 0h24v24H0z"/><path d="M18.031 16.617l4.283 4.282-1.415 1.415-4.282-4.283A8.96 8.96 0 0 1 11 20c-4.968 0-9-4.032-9-9s4.032-9 9-9 9 4.032 9 9a8.96 8.96 0 0 1-1.969 5.617zm-2.006-.742A6.977 6.977 0 0 0 18 11c0-3.868-3.133-7-7-7-3.868 0-7 3.132-7 7 0 3.867 3.132 7 7 7a6.977 6.977 0 0 0 4.875-1.975l.15-.15zM7 10h8v2H7v-2z"/></symbol><symbol viewBox="0 0 24 24" id="clockwise-line"><path fill="none" d="M0 0h24v24H0z"/><path d="M20 10.586l1.828-1.829 1.415 1.415L19 14.414l-4.243-4.242 1.415-1.415L18 10.586V8a3 3 0 0 0-3-3h-4V3h4a5 5 0 0 1 5 5v2.586zM13 9a1 1 0 0 1 1 1v10a1 1 0 0 1-1 1H3a1 1 0 0 1-1-1V10a1 1 0 0 1 1-1h10zm-1 2H4v8h8v-8z"/></symbol><symbol viewBox="0 0 24 24" id="loader-3-line"><path fill="none" d="M0 0h24v24H0z"/><path d="M3.055 13H5.07a7.002 7.002 0 0 0 13.858 0h2.016a9.001 9.001 0 0 1-17.89 0zm0-2a9.001 9.001 0 0 1 17.89 0H18.93a7.002 7.002 0 0 0-13.858 0H3.055z"/></symbol><symbol viewBox="0 0 24 24" id="download-line"><path fill="none" d="M0 0h24v24H0z"/><path d="M3 19h18v2H3v-2zm10-5.828L19.071 7.1l1.414 1.414L12 17 3.515 8.515 4.929 7.1 11 13.17V2h2v11.172z"/></symbol><symbol viewBox="0 0 24 24" id="close-line"><path fill="none" d="M0 0h24v24H0z"/><path d="M12 10.586l4.95-4.95 1.414 1.414-4.95 4.95 4.95 4.95-1.414 1.414-4.95-4.95-4.95 4.95-1.414-1.414 4.95-4.95-4.95-4.95L7.05 5.636z"/></symbol><symbol viewBox="0 0 24 24" id="arrow-left-s-line"><path fill="none" d="M0 0h24v24H0z"/><path d="M10.828 12l4.95 4.95-1.414 1.414L8 12l6.364-6.364 1.414 1.414z"/></symbol><symbol viewBox="0 0 24 24" id="information-line"><path fill="none" d="M0 0h24v24H0z"/><path d="M12 22C6.477 22 2 17.523 2 12S6.477 2 12 2s10 4.477 10 10-4.477 10-10 10zm0-2a8 8 0 1 0 0-16 8 8 0 0 0 0 16zM11 7h2v2h-2V7zm0 4h2v6h-2v-6z"/></symbol></svg>